<?xml version="1.0" encoding="UTF-8" standalone="no"?>
<svg
   id="Layer_1"
   data-name="Layer 1"
   viewBox="0 0 348.1 196.96"
   version="1.1"
   sodipodi:docname="logo.svg"
   inkscape:version="1.1 (c68e22c387, 2021-05-23)"
   xmlns:inkscape="http://www.inkscape.org/namespaces/inkscape"
   xmlns:sodipodi="http://sodipodi.sourceforge.net/DTD/sodipodi-0.dtd"
   xmlns="http://www.w3.org/2000/svg"
   xmlns:svg="http://www.w3.org/2000/svg">
  <sodipodi:namedview
     id="namedview884"
     pagecolor="#505050"
     bordercolor="#eeeeee"
     borderopacity="1"
     inkscape:pageshadow="0"
     inkscape:pageopacity="0"
     inkscape:pagecheckerboard="0"
     showgrid="false"
     inkscape:zoom="4.2901737"
     inkscape:cx="160.01683"
     inkscape:cy="109.43613"
     inkscape:window-width="3440"
     inkscape:window-height="1377"
     inkscape:window-x="1912"
     inkscape:window-y="-8"
     inkscape:window-maximized="1"
     inkscape:current-layer="Layer_1" />
  <defs
     id="defs857">
    <style
       id="style855">.cls-1{fill:#99425b;}.cls-2{fill:#fff;}.cls-3{fill:#e9551d;}.cls-4{fill:#ef7c10;}.cls-5{fill:#f6a307;}.cls-6{fill:#b91d1b;}.cls-7{fill:#020203;}</style>
  </defs>
  <path
     class="cls-3"
     d="M134.49,28a67,67,0,0,1,11.84,37,62.44,62.44,0,0,0-16.46-18.52,72.41,72.41,0,0,1,8.56,36.33A32.55,32.55,0,0,0,124.62,63c4.3,10.75,8.43,23.54,2.07,33.22a93.11,93.11,0,0,0-6-15,81.23,81.23,0,0,1-10.92,46,59.53,59.53,0,0,0-8.2-29.47,126.3,126.3,0,0,1-5.71,38.43,101.78,101.78,0,0,0-13.14-33.15,133.18,133.18,0,0,1-9.84,28.19,125.09,125.09,0,0,0-9.87-28c-5.64,9.15-4.66,20.73-3.44,31.38A90.38,90.38,0,0,1,47.93,82.83,34.75,34.75,0,0,0,39.86,101c-7.64-9.9-6.49-23.7-5-36.13A61.76,61.76,0,0,0,19.08,84.77C17.73,68,25.93,52.14,33.9,37.29A60.08,60.08,0,0,1,16.35,53.42,270.55,270.55,0,0,0,26.85,22a23.19,23.19,0,0,1-7.51,10.82,7.66,7.66,0,0,1-.53,2.07C14.22,45.06,2.68,58.51,2.06,59.69c0,0,7.28-.82,12.33-5.51C6.58,69.1,19.44,96.9,25.6,103.92c-1.18-3.18-.92-7.67,1.84-9.67-1.35,29.05,22.88,46,22.88,46S47,133.69,49.8,130c1.57,8,35.9,19.14,35.9,35.14,0-16.23,36.92-28,40.76-50.29.62,0,1.57,6.59-.33,9,17.58-10.33,29.18-43.12,27.9-52.6,2.76,3,4.37,9.78,4.37,9.78s10.59-24.5-.33-45.12C153.94,28,150,24.5,146.56,22c1.11,5,3.64,9.58,6.13,14.07A26.36,26.36,0,0,0,134.49,28Z"
     transform="translate(-2.06 -3.03)"
     id="path863" />
  <path
     class="cls-4"
     d="M80.62,25C42.78,24.08,28.26,12.63,28.26,3c0,17.83-8.23,24-8.92,29.83A23.19,23.19,0,0,0,26.85,22a270.55,270.55,0,0,1-10.5,31.38A60.08,60.08,0,0,0,33.9,37.29C25.93,52.14,17.73,68,19.08,84.77A61.35,61.35,0,0,1,34.85,64.9c-1.48,12.43-2.59,26.26,5,36.23A34.7,34.7,0,0,1,48,82.93a90.45,90.45,0,0,0,11.61,51.84c-1.18-10.65-2.2-22.23,3.44-31.38a124.08,124.08,0,0,1,9.87,28,133.07,133.07,0,0,0,9.84-28.2,101.58,101.58,0,0,1,13.15,33.15,126.2,126.2,0,0,0,5.7-38.43,59.88,59.88,0,0,1,8.2,29.48,81.17,81.17,0,0,0,10.92-46,94.68,94.68,0,0,1,6,15c6.36-9.7,2.23-22.49-2.06-33.21A32.7,32.7,0,0,1,138.46,83a72.41,72.41,0,0,0-8.56-36.33,62.44,62.44,0,0,1,16.46,18.52,67.06,67.06,0,0,0-11.83-37,26.13,26.13,0,0,1,18.19,8.07c-2.49-4.49-5-9.08-6.13-14.07-5.54-3.93-9.93-5.44-12.43-19C134.13,12.63,118.49,25.91,80.62,25Z"
     transform="translate(-2.06 -3.03)"
     id="path865" />
  <path
     class="cls-5"
     d="M60,31.22c-6.69,5.81-7.93,18.3-6.65,27A21.76,21.76,0,0,1,59.6,47.62c-1.67,5,.17,10.46,2.17,15.38,2.39,5.9,5.08,11.74,9,16.72a35.1,35.1,0,0,1,1.37-20.53c0,2.46,1.32,4.73,2.5,6.89a119.6,119.6,0,0,1,11.8,31.58c5.34-10.63,3.61-23.38,7-34.76,4.85,4.85,6.06,12.13,6.82,18.92a49.92,49.92,0,0,0,4.59-28.53A29,29,0,0,1,112.75,66a46.24,46.24,0,0,0-1-23.38c-1.48-4.75-4.07-9.6-8.63-11.74a18.79,18.79,0,0,0-5.54-1.44c-3.28-.46-6.59-.72-9.9-1a64.1,64.1,0,0,0-12.23-.1,21.75,21.75,0,0,0-11.25,4.36"
     transform="translate(-2.06 -3.03)"
     id="path867" />
  <path
     class="cls-6"
     d="M61,30.11C59.11,47,95.34,57.85,104.46,31.55,107.28,23.42,61.44,25.78,61,30.11Z"
     transform="translate(-2.06 -3.03)"
     id="path869" />
  <path
     class="cls-2"
     d="M63.8,36.34c0,2.66,37.25,1.77,37.18-.66,0-.52.26-6.13.3-6.75-10.46.56-28.36.29-37.51,3.08l0,4.33Z"
     transform="translate(-2.06 -3.03)"
     id="path871" />
  <path
     class="cls-5"
     d="M82.36,23.36c6.59,6.85,41.41,8.06,50.3-2.53-6.07,5.08-14.14,4.56-16.89,3.54a7.67,7.67,0,0,0,5.64-5.9c-15.18,15.31-19.64-10.95-38.85,3.08C66.69,10,56.26,26.37,44.16,20.7l5.15,3.67s-7.58,5-16.89-3.54a21.39,21.39,0,0,0,4.23,4.69C49.63,30,76.19,28.27,82.36,23.36Z"
     transform="translate(-2.06 -3.03)"
     id="path873" />
  <path
     class="cls-3"
     d="M82.56,29.42c11.67,6.49,40.42,6.2,50.1-8.56h0c-8.89,10.56-43.71,9.35-50.3,2.5C76.19,28.27,49.63,30,36.65,25.52,48.75,35.59,72.26,35.16,82.56,29.42Z"
     transform="translate(-2.06 -3.03)"
     id="path875" />
  <path
     class="cls-3"
     d="M86.52,159.66c-6.75,3.77-15.9,24.2,1.31,40.33-1.31-15.15,14.3-23.81-1.31-40.33"
     transform="translate(-2.06 -3.03)"
     id="path877" />
  <path
     class="cls-4"
     d="M86.13,159.66c-3.31,3.77-6.72,24.2,1.74,40.33-.66-15.15,5.9-23.81-1.74-40.33"
     transform="translate(-2.06 -3.03)"
     id="path879" />
  <path
     class="cls-7"
     d="M66.59,156.41c1.34-2.65,18.72,2.66,18.72,2.66s15.31-6.1,18.1-5.15,1.87,15.71,0,15.71-18.07-8.27-18.07-8.27-15.64,8.5-17.18,8.27S65.8,158,66.59,156.41Z"
     transform="translate(-2.06 -3.03)"
     id="path881" />
  <g
     stroke="none"
     stroke-width="1"
     fill="none"
     fill-rule="evenodd"
     id="g1134"
     transform="matrix(0.68311224,0,0,0.68311224,177.35616,1.7901145)">
    <polygon
       id="bodyDot1_fJqI"
       fill="#ea5906"
       points="61.000306,100.00006 66.000305,100.00006 66.000305,95.000061 61.000306,95.000061 " />
    <polygon
       id="bodyDot2_HC3O"
       fill="#ea5906"
       points="70.000305,100.00006 75.000305,100.00006 75.000305,95.000061 70.000305,95.000061 " />
    <polygon
       id="bodyDot3_SONL"
       fill="#ea5906"
       points="78.000305,100.00006 83.000305,100.00006 83.000305,95.000061 78.000305,95.000061 " />
    <polygon
       id="bodyDot4_TcFP"
       fill="#ea5906"
       points="87.000305,100.00006 92.000305,100.00006 92.000305,95.000061 87.000305,95.000061 " />
    <path
       d="M 59.947119,53.677047 V 22.169302 c -8.715591,0 -15.781427,7.053026 -15.781427,15.754178 0,8.700541 7.065836,15.753567 15.781427,15.753567"
       class="ear_pWoj"
       fill="#ea5906"
       id="path1105" />
    <path
       d="m 197.83357,37.922809 c 0,-8.700542 -7.06583,-15.753568 -15.78142,-15.753568 v 31.507745 c 8.71559,0 15.78142,-7.053026 15.78142,-15.754177"
       class="ear_pWoj"
       fill="#ea5906"
       id="path1107" />
    <path
       d="m 97.578562,23.694032 c 7.221038,0 13.095378,5.864814 13.095378,13.073991 0,7.209177 -5.87434,13.073991 -13.095378,13.073991 -7.222258,0 -13.098438,-5.864814 -13.098438,-13.073991 0,-7.209177 5.87618,-13.073991 13.098438,-13.073991 m 0,29.197807 c 8.905008,0 16.150478,-7.232965 16.150478,-16.123816 0,-8.890851 -7.24547,-16.123817 -16.150478,-16.123817 -8.907451,0 -16.153538,7.232966 -16.153538,16.123817 0,8.890851 7.246087,16.123816 16.153538,16.123816"
       class="eye_RpDs"
       fill="#ea5906"
       id="path1109" />
    <path
       d="m 97.57734,47.707258 c 6.05154,0 10.95803,-4.897409 10.95803,-10.939113 0,-6.041704 -4.90649,-10.939723 -10.95803,-10.939723 -6.051543,0 -10.959256,4.898019 -10.959256,10.939723 0,6.041704 4.907713,10.939113 10.959256,10.939113"
       class="eye_RpDs"
       fill="#ea5906"
       id="path1111" />
    <path
       d="m 144.42419,23.694032 c 7.21981,0 13.09538,5.864814 13.09538,13.073991 0,7.209177 -5.87557,13.073991 -13.09538,13.073991 -7.22226,0 -13.09844,-5.864814 -13.09844,-13.073991 0,-7.209177 5.87618,-13.073991 13.09844,-13.073991 m 0,29.197807 c 8.905,0 16.15048,-7.232965 16.15048,-16.123816 0,-8.890851 -7.24548,-16.123817 -16.15048,-16.123817 -8.90745,0 -16.15354,7.232966 -16.15354,16.123817 0,8.890851 7.24609,16.123816 16.15354,16.123816"
       class="eye_RpDs"
       fill="#ea5906"
       id="path1113" />
    <path
       d="m 144.42303,47.707258 c 6.05154,0 10.95803,-4.897409 10.95803,-10.939113 0,-6.041704 -4.90649,-10.939723 -10.95803,-10.939723 -6.05155,0 -10.95926,4.898019 -10.95926,10.939723 0,6.041704 4.90771,10.939113 10.95926,10.939113"
       class="eye_RpDs"
       fill="#ea5906"
       id="path1115" />
    <polygon
       id="headDot1_XpGD"
       fill="#ea5906"
       points="166.31691,35.174306 171.40916,35.174306 171.40916,30.091467 166.31691,30.091467 " />
    <polygon
       id="headDot2_G1zb"
       fill="#ea5906"
       points="166.31691,42.494497 171.40916,42.494497 171.40916,37.411658 166.31691,37.411658 " />
    <path
       d="m 67.230417,12.103537 c 0,-4.9925643 4.068171,-9.0537117 9.06876,-9.0537117 h 89.400793 c 5.00181,0 9.06998,4.0611474 9.06998,9.0537117 v 39.534275 c 0,4.992564 -4.06817,9.053712 -9.06998,9.053712 H 76.299177 c -5.000589,0 -9.06876,-4.061148 -9.06876,-9.053712 z m 9.06876,51.637812 h 89.400793 c 6.66867,0 12.12508,-5.446378 12.12508,-12.103537 V 12.103537 C 177.82505,5.446378 172.36864,0 165.69997,0 H 76.299177 C 69.630504,0 64.175316,5.446378 64.175316,12.103537 v 39.534275 c 0,6.657159 5.455188,12.103537 12.123861,12.103537 z"
       id="head_lOZw"
       fill="#ea5906" />
    <path
       d="m 189.22558,68.469188 c 6.56643,0 11.95824,5.282587 12.12012,11.801205 l 0.004,0.301722 v 1.239449 c 8.04894,1.310992 34.91228,10.301666 35.44874,39.099586 l 0.008,0.87874 v 64.16467 c 3.21274,2.1239 5.19367,5.02184 5.19367,8.21867 0,2.46792 -1.18171,4.75772 -3.19808,6.65167 -0.20718,4.57452 1.0782,13.57383 1.70268,17.30829 l 0.0479,0.28371 0.0214,0.23789 c 0.002,0.19091 0.0202,4.71259 -2.95612,7.71849 -1.68641,1.70364 -3.94658,2.56735 -6.71755,2.56735 -8.73453,0 -9.10664,-7.32995 -9.28567,-10.85311 -0.0226,-0.44406 -0.0422,-0.84968 -0.0764,-1.19919 -0.14115,-1.45721 -0.65318,-2.2032 -1.52266,-2.21723 -0.0275,-6.1e-4 -0.055,-0.001 -0.0825,-0.001 -0.92997,0 -1.53122,0.28303 -2.52168,1.78903 -2.75448,4.06542 -7.7404,3.67626 -10.40506,2.10316 -1.51105,-0.89055 -2.49357,-2.20746 -2.84063,-3.8074 -0.49615,-2.28249 0.333,-4.98586 2.46668,-8.03568 1.64793,-2.35691 1.99071,-4.38565 1.87706,-5.89836 -2.0127,-1.89333 -3.19319,-4.18131 -3.19319,-6.6474 0,-3.10402 1.86823,-5.9264 4.91641,-8.03181 l 0.29864,-0.2015 V 128.1307 c 0,-4.81323 -1.48722,-6.64984 -4.54415,-9.37943 -1.24665,-1.11299 -2.71152,-1.76263 -4.29626,-2.09028 l -0.34139,-0.0653 v 92.26088 c 0,6.55629 -5.29231,11.93821 -11.82164,12.0998 l -0.30222,0.004 h -8.59949 v 33.92931 h 6.98823 l 0.13748,0.0256 c 0.0105,0.002 0.10959,0.0213 0.2828,0.0635 l 0.14356,0.036 c 2.11822,0.54582 11.44901,3.56154 12.90238,14.53384 l 0.0526,0.43153 V 283 h -42.22332 l -12.98539,-4.52533 v -9.85765 c -0.31285,-4.93295 0.53662,-8.63103 2.46428,-10.73552 l 0.18388,-0.19261 V 220.95984 H 93.175062 v 36.72905 c 1.994962,2.00453 2.912644,5.61387 2.672817,10.4693 l -0.02588,0.45883 v 9.85765 L 82.837825,283 H 40.613893 v -13.02031 c 1.401554,-12.56808 13.004722,-14.99094 13.372697,-15.06337 l 0.008,-0.002 0.138091,-0.0256 h 6.988847 v -33.92931 h -8.345312 c -6.568234,0 -11.959477,-5.28258 -12.12134,-11.80178 l -0.0037,-0.30175 v -92.26576 c -1.716356,0.30193 -3.301342,0.96802 -4.636421,2.1605 -2.976097,2.65582 -4.463294,4.46627 -4.541509,8.99561 l -0.0033,0.38382 v 57.80944 c 3.224964,2.12512 5.214445,5.02916 5.214445,8.23331 0,2.46609 -1.179268,4.75407 -3.193802,6.6474 -0.113649,1.51271 0.230355,3.54145 1.878276,5.89836 2.13246,3.04982 2.962225,5.75319 2.466688,8.03568 -0.348281,1.59994 -1.330191,2.91685 -2.841243,3.8074 -2.664659,1.5731 -7.651194,1.96226 -10.403839,-2.10316 -0.990464,-1.506 -1.59354,-1.78903 -2.522902,-1.78903 -0.02627,0 -0.05377,6.1e-4 -0.08249,10e-4 -0.86887,0.014 -1.382127,0.76002 -1.522662,2.21723 -0.03361,0.34951 -0.05377,0.75513 -0.07638,1.19919 -0.179029,3.52316 -0.551751,10.85311 -9.285061,10.85311 -2.7709763,0 -5.0311396,-0.86371 -6.718777,-2.56735 -2.7863036,-2.81404 -2.9480875,-6.95652 -2.9558847,-7.63052 l -2.304e-4,-0.088 0.021997,-0.23789 C 2.0518054,214.87544 3.4119361,205.5198 3.1986901,200.8249 1.1817128,198.93095 0,196.64115 0,194.17323 c 0,-3.09693 1.8596271,-5.91336 4.8961614,-8.0173 l 0.2975092,-0.20137 v -64.16467 c 0,-29.197492 26.7816524,-38.46763 35.2078214,-39.9362 l 0.249674,-0.04213 v -1.239449 c 0,-6.555692 5.291723,-11.937607 11.822783,-12.099191 l 0.302299,-0.0037 z m 8.50663,199.737332 h -36.43574 c 0.0449,0.44466 0.0695,0.89001 0.0708,1.33528 l -0.007,0.4452 h 36.70336 c -0.0813,-0.62399 -0.19369,-1.21688 -0.33178,-1.78048 z m -117.281641,0 H 44.015442 c -0.104026,0.4227 -0.193273,0.86188 -0.265937,1.31829 l -0.06707,0.46219 h 36.703976 c -0.01894,-0.59349 0.0049,-1.1876 0.06416,-1.78048 z m 70.305801,-8.38824 c -1.12451,1.1126 -1.76149,3.35817 -1.83327,6.32676 l -0.006,0.35967 9.39321,3.27369 c 0.0697,-3.26393 -1.50799,-6.73219 -3.13942,-8.72067 -1.10045,-1.34193 -2.07686,-1.86589 -2.62311,-1.90919 -0.70084,-0.0531 -1.2807,0.16469 -1.79151,0.66974 z m -61.369511,-0.67749 -0.188315,0.008 c -0.546863,0.0433 -1.522662,0.56726 -2.62311,1.90919 -1.57198,1.91747 -3.096235,5.2109 -3.140101,8.37026 l 0.0013,0.35041 9.39199,-3.27369 c -0.02627,-3.1468 -0.669067,-5.52933 -1.83856,-6.68643 -0.417937,-0.41323 -0.881686,-0.63413 -1.420697,-0.67173 z m 97.928061,-1.20181 H 156.4248 c 0.37639,0.34889 0.74728,0.74354 1.11023,1.18638 1.38964,1.69436 2.69271,4.15446 3.3628,6.82751 l 0.10046,0.42375 h 36.15834 c -2.55712,-6.54248 -8.89401,-8.22111 -9.84171,-8.43764 z m -101.992688,0 h -30.89012 c -0.931666,0.21273 -7.064503,1.83671 -9.703706,8.09777 l -0.137994,0.33987 h 36.157724 c 0.63485,-2.83573 2.001091,-5.46773 3.463262,-7.25126 0.363557,-0.44284 0.735057,-0.83749 1.110834,-1.18638 z M 66.798548,220.95984 H 62.95462 v 33.92931 h 3.843928 z m 23.321414,0 h -4.175711 v 20.00198 h 1.426121 v 6.40585 h -1.426121 v 7.52148 h 4.175711 z m 88.673068,0 h -3.84515 v 33.92931 h 3.84515 z m -22.99085,0 h -4.17449 v 33.92931 h 4.17449 v -7.52148 h -1.4249 v -6.40585 h 1.4249 z M 6.2550125,203.03724 c -0.1674195,5.99108 -1.5587122,14.48667 -1.7713472,15.75113 0.019553,0.58922 0.2077468,3.57195 2.0848005,5.45431 1.1053353,1.10891 2.5888921,1.64812 4.5325472,1.64812 2.149568,0 3.532918,-0.57947 4.442116,-1.54443 -1.29353,-0.28302 -2.963448,-0.9241 -4.070616,-2.38557 -1.146885,-1.51455 -1.38946,-3.47803 -0.721004,-5.83798 0.236465,-0.83504 0.430769,-1.49014 0.598189,-2.05253 0.141979,-0.4786 0.262867,-0.88621 0.372135,-1.28 l 0.07123,-0.26111 0.06841,-0.26078 c 0.347229,-1.35301 0.606522,-2.8437 1.164869,-6.80899 -2.532678,-0.49285 -4.8319468,-1.32789 -6.7713245,-2.42217 z m 229.4905875,0 c -1.93938,1.09428 -4.23804,1.92932 -6.7701,2.42217 0.55748,3.96529 0.81622,5.45598 1.16383,6.80899 l 0.0685,0.26078 0.0713,0.26111 c 0.10945,0.39379 0.23061,0.8014 0.37296,1.28 0.16681,0.56239 0.36173,1.21749 0.59758,2.05253 0.66846,2.35995 0.42527,4.32343 -0.72161,5.83798 -1.10778,1.46147 -2.77587,2.10255 -4.07062,2.38557 0.91042,0.96496 2.29194,1.54443 4.44273,1.54443 1.94426,0 3.42599,-0.53921 4.53255,-1.64812 1.87583,-1.88236 2.06585,-4.86509 2.0848,-5.45431 -0.14692,-0.87363 -0.85705,-5.19907 -1.33702,-9.76544 l -0.0738,-0.72253 c -0.17903,-1.80901 -0.31569,-3.62923 -0.36118,-5.26316 z m -16.75784,2.53989 c -0.83037,1.34132 -1.89049,2.49659 -2.9274,3.62137 -1.12061,1.21566 -2.17889,2.36422 -2.8058,3.61526 -0.23952,0.47882 -0.2829,0.89726 -0.13504,1.31752 0.19003,0.54287 0.6709,1.01621 1.12795,1.36328 0.21874,-0.20922 0.42832,-0.44223 0.62202,-0.72647 1.08578,-1.6524 2.49785,-3.1767 5.19611,-3.14681 2.5284,0.0415 4.21604,1.90126 4.513,4.97365 0.0385,0.38977 0.0623,0.84236 0.0874,1.33827 0.0642,1.27238 0.16681,2.47645 0.40938,3.54999 0.88171,-0.0988 2.32371,-0.43978 3.0215,-1.36937 0.53342,-0.71122 0.60491,-1.775 0.21263,-3.16145 -0.23157,-0.81979 -0.42282,-1.4633 -0.58596,-2.01532 -0.73078,-2.45633 -0.94892,-3.19256 -1.77563,-9.06713 -0.75094,0.0604 -1.51472,0.0945 -2.2901,0.0945 -1.61371,0 -3.17975,-0.1348 -4.67003,-0.38733 z m -195.973689,0 c -1.492111,0.25253 -3.056322,0.38733 -4.671248,0.38733 -0.775996,0 -1.538549,-0.0342 -2.290104,-0.0945 -0.827321,5.87457 -1.045455,6.6108 -1.774402,9.06713 -0.163753,0.55202 -0.355614,1.19553 -0.58719,2.01532 -0.392886,1.38645 -0.321397,2.45023 0.213246,3.16145 0.698396,0.92959 2.139792,1.27056 3.020883,1.36937 0.241964,-1.07354 0.344615,-2.27761 0.410606,-3.54999 0.02505,-0.49591 0.04888,-0.9485 0.08554,-1.33827 0.297567,-3.07239 1.984594,-4.93217 4.513606,-4.97365 2.698264,-0.0299 4.109721,1.49441 5.197336,3.14681 0.191861,0.28424 0.403274,0.51725 0.620186,0.72647 0.457043,-0.34707 0.938527,-0.82041 1.129165,-1.36328 0.147867,-0.42026 0.103873,-0.8387 -0.136258,-1.31752 -0.626295,-1.25104 -1.684582,-2.3996 -2.805193,-3.61526 -1.037512,-1.12478 -2.097021,-2.28005 -2.926175,-3.62137 z m 188.455089,-2.59601 c -0.25663,1.63227 -0.93425,3.48473 -2.33165,5.4842 -1.60393,2.29225 -2.29011,4.24353 -1.98582,5.64279 0.16437,0.7594 0.63852,1.37486 1.4084,1.82867 0.47721,0.28119 1.83306,0.80454 3.27324,0.65876 -0.41794,-0.45808 -0.79372,-1.00949 -1.02041,-1.65666 -0.36539,-1.0406 -0.27679,-2.15257 0.25541,-3.21635 0.78027,-1.55846 2.0072,-2.8894 3.1938,-4.17582 0.75278,-0.81674 1.51655,-1.65056 2.16118,-2.53623 -1.82389,-0.50383 -3.4932,-1.19309 -4.95415,-2.02936 z m -180.937098,0 c -1.46156,0.83627 -3.131478,1.52553 -4.954762,2.02936 0.644626,0.88567 1.409013,1.71949 2.161178,2.53623 1.18599,1.28642 2.412919,2.61736 3.193802,4.17582 0.533421,1.06378 0.621408,2.17575 0.256018,3.21635 -0.227911,0.64717 -0.603688,1.19858 -1.021015,1.65666 1.440174,0.14578 2.79725,-0.37757 3.273235,-0.65876 0.769885,-0.45381 1.243426,-1.06927 1.409623,-1.82867 0.304288,-1.39926 -0.38311,-3.35054 -1.985815,-5.64279 -1.398625,-1.99947 -2.076858,-3.85193 -2.332264,-5.4842 z M 185.00031,183.00006 H 58.000306 v 17.95374 c 0,6.52527 5.275204,11.88172 11.785877,12.04254 l 0.301355,0.004 H 172.91429 c 6.54713,0 11.92094,-5.25759 12.08228,-11.74594 l 0.004,-0.30032 z m 16.34913,-96.876653 v 18.403863 c 3.55981,1.03572 7.04079,2.68202 9.93275,5.26278 4.66832,4.16798 7.08597,10.93884 7.18888,17.87762 l 0.003,0.46281 v 53.94409 h 14.05469 v -60.28468 c 0,-12.01753 -4.99692,-21.62326 -14.85207,-28.549411 -6.3821,-4.486293 -13.07583,-6.499787 -16.32768,-7.117072 z m -160.698274,0 c -3.253071,0.617895 -9.947407,2.631389 -16.32829,7.117072 C 14.619351,100.06008 9.6257125,109.47744 9.4743588,121.23695 l -0.00355,0.55294 v 60.28468 H 23.526717 v -53.94409 c 0,-7.09938 2.419028,-14.07982 7.192928,-18.34043 2.75759,-2.46287 6.056325,-4.07485 9.446619,-5.11765 l 0.484902,-0.14513 z M 185.00031,125.00006 h -67 v 36 h 67 z m -124.000004,3 h -2 v 30 h 2 z m 31.999999,0 c -8.284271,0 -15,6.71573 -15,15 0,8.28427 6.715729,15 15,15 8.284275,0 15.000005,-6.71573 15.000005,-15 0,-8.28427 -6.71573,-15 -15.000005,-15 z m -15,0 h -1.965999 l -12.034001,29.99989 h 1.966001 z m 15,1.875 c 7.248735,0 13.125005,5.87626 13.125005,13.125 0,7.24874 -5.87627,13.125 -13.125005,13.125 -7.248737,0 -13.125,-5.87626 -13.125,-13.125 0,-7.24874 5.876263,-13.125 13.125,-13.125 z M 172.91429,76.000061 H 70.087538 c -6.547731,0 -11.922144,5.244769 -12.083502,11.7173 l -0.0037,0.299589 v 14.98311 H 185.00031 V 88.01695 c 0,-6.609501 -5.43816,-12.016889 -12.08602,-12.016889 z"
       fill="#ea5906"
       id="path1120" />
    <path
       d="m 118.00031,150.74046 c 6.64716,-10.33331 16.97074,-10.93725 30.97074,-1.81182 21,13.68813 13.00142,-28.44331 36.02926,-6.43621"
       id="processLine_KaxM"
       stroke="#ea5906"
       stroke-width="2"
       stroke-linecap="square" />
    <circle
       stroke="#ea5906"
       stroke-width="2"
       cx="75.000305"
       cy="198.00006"
       r="12"
       id="circle1123" />
    <circle
       stroke="#ea5906"
       stroke-width="2"
       cx="105.00031"
       cy="198.00006"
       r="12"
       id="circle1125" />
    <line
       x1="75.000305"
       y1="209.00006"
       x2="75.000305"
       y2="198.00006"
       stroke="#ea5906"
       stroke-width="4"
       stroke-linecap="round"
       id="line1127" />
    <line
       x1="105.00031"
       y1="198.00006"
       x2="111.92337"
       y2="190.07246"
       stroke="#ea5906"
       stroke-width="4"
       stroke-linecap="round"
       id="line1129" />
    <line
       x1="133.00031"
       y1="190.50006"
       x2="171.00031"
       y2="190.50006"
       id="lineTop_VFCS"
       stroke="#ea5906"
       stroke-width="4"
       stroke-linecap="round" />
    <line
       x1="133.00031"
       y1="197.50006"
       x2="171.00031"
       y2="197.50006"
       id="lineMiddle_zLOt"
       stroke="#ea5906"
       stroke-width="4"
       stroke-linecap="round" />
    <line
       x1="133.00031"
       y1="204.50006"
       x2="155.00031"
       y2="204.50006"
       id="lineBottom_vGOC"
       stroke="#ea5906"
       stroke-width="4"
       stroke-linecap="round" />
  </g>
</svg>
